<svg width="49" height="49" viewBox="0 0 49 49" fill="none" xmlns="http://www.w3.org/2000/svg">
<path d="M8.16663 36.75C8.16663 34.5841 9.02704 32.5069 10.5586 30.9753C12.0901 29.4438 14.1674 28.5833 16.3333 28.5833H32.6666C34.8326 28.5833 36.9098 29.4438 38.4413 30.9753C39.9729 32.5069 40.8333 34.5841 40.8333 36.75C40.8333 37.833 40.4031 38.8716 39.6373 39.6374C38.8715 40.4031 37.8329 40.8333 36.75 40.8333H12.25C11.167 40.8333 10.1284 40.4031 9.36261 39.6374C8.59683 38.8716 8.16663 37.833 8.16663 36.75Z" stroke="white" stroke-width="2" stroke-linejoin="round"/>
<path d="M24.5 20.4167C27.8827 20.4167 30.625 17.6744 30.625 14.2917C30.625 10.9089 27.8827 8.16667 24.5 8.16667C21.1173 8.16667 18.375 10.9089 18.375 14.2917C18.375 17.6744 21.1173 20.4167 24.5 20.4167Z" stroke="white" stroke-width="2"/>
</svg>
